<svg xmlns="http://www.w3.org/2000/svg" viewBox="0 0 200 200">
  <defs>
    <linearGradient id="g1" x1="0%" y1="0%" x2="100%" y2="100%">
      <stop offset="0%" stop-color="#0f2b3d"/>
      <stop offset="100%" stop-color="#1a4a6a"/>
    </linearGradient>
    <linearGradient id="g2" x1="0%" y1="0%" x2="100%" y2="100%">
      <stop offset="0%" stop-color="#c9a84c"/>
      <stop offset="100%" stop-color="#a8882e"/>
    </linearGradient>
  </defs>

  <!-- Circle background -->
  <circle cx="100" cy="100" r="96" fill="white" stroke="url(#g1)" stroke-width="3"/>

  <!-- C shape -->
  <path d="M72 74 Q72 60 88 60 L112 60 Q120 60 120 68 L120 76 Q120 82 112 82 L96 82"
        fill="none" stroke="url(#g1)" stroke-width="10" stroke-linecap="round"/>
  <path d="M72 74 Q72 60 88 60 L112 60 Q120 60 120 68 L120 76 Q120 82 112 82 L96 82"
        fill="none" stroke="url(#g2)" stroke-width="5" stroke-linecap="round" opacity="0.4"/>

  <!-- T vertical -->
  <line x1="100" y1="54" x2="100" y2="146" stroke="url(#g1)" stroke-width="10" stroke-linecap="round"/>
  <line x1="100" y1="54" x2="100" y2="146" stroke="url(#g2)" stroke-width="5" stroke-linecap="round" opacity="0.3"/>

  <!-- T horizontal -->
  <line x1="76" y1="56" x2="134" y2="56" stroke="url(#g1)" stroke-width="10" stroke-linecap="round"/>
  <line x1="76" y1="56" x2="134" y2="56" stroke="url(#g2)" stroke-width="5" stroke-linecap="round" opacity="0.3"/>

  <!-- Arrowhead -->
  <polygon points="128,42 150,56 128,70" fill="url(#g1)"/>
  <polygon points="128,44 146,56 128,67" fill="url(#g2)" opacity="0.3"/>
</svg>