<svg xmlns="http://www.w3.org/2000/svg" viewBox="0 0 1200 630" width="1200" height="630">
  <defs>
    <linearGradient id="bg" x1="0%" y1="0%" x2="100%" y2="100%">
      <stop offset="0%" style="stop-color:#0f2b3d"/>
      <stop offset="100%" style="stop-color:#1a4a6a"/>
    </linearGradient>
    <linearGradient id="g1" x1="0%" y1="0%" x2="100%" y2="100%">
      <stop offset="0%" style="stop-color:#0f2b3d"/>
      <stop offset="100%" style="stop-color:#1a4a6a"/>
    </linearGradient>
    <linearGradient id="g2" x1="0%" y1="0%" x2="100%" y2="100%">
      <stop offset="0%" style="stop-color:#c9a84c"/>
      <stop offset="100%" style="stop-color:#a8882e"/>
    </linearGradient>
  </defs>

  <rect width="1200" height="630" fill="url(#bg)"/>
  <rect x="0" y="0" width="1200" height="8" fill="#e8a838"/>
  <rect x="0" y="622" width="1200" height="8" fill="#e8a838"/>

  <!-- Logo -->
  <g transform="translate(60, 50) scale(1.8)">
    <path d="M20 12 Q20 8 28 8 L44 8 Q48 8 48 12 L48 16 Q48 20 44 20 L34 20" fill="none" stroke="#ffffff" stroke-width="7" stroke-linecap="round"/>
    <path d="M20 12 Q20 8 28 8 L44 8 Q48 8 48 12 L48 16 Q48 20 44 20 L34 20" fill="none" stroke="#e8a838" stroke-width="3" stroke-linecap="round" opacity="0.4"/>
    <line x1="40" y1="6" x2="40" y2="62" stroke="#ffffff" stroke-width="7" stroke-linecap="round"/>
    <line x1="40" y1="6" x2="40" y2="62" stroke="#e8a838" stroke-width="3" stroke-linecap="round" opacity="0.3"/>
    <line x1="28" y1="6" x2="72" y2="6" stroke="#ffffff" stroke-width="7" stroke-linecap="round"/>
    <line x1="28" y1="6" x2="72" y2="6" stroke="#e8a838" stroke-width="3" stroke-linecap="round" opacity="0.3"/>
    <polygon points="68,0 80,6 68,12" fill="#ffffff"/>
    <polygon points="68,1 78,6 68,11" fill="#e8a838" opacity="0.3"/>
  </g>

  <!-- Brand text -->
  <text x="60" y="175" font-family="Georgia, serif" font-size="38" fill="#e8a838" font-weight="bold" letter-spacing="3">CENTRAL DE TRASPASOS</text>
  <text x="60" y="210" font-family="Arial, sans-serif" font-size="18" fill="#8ab4c8" letter-spacing="2">INMOBILIARIA · COSTA DEL SOL</text>

  <line x1="60" y1="235" x2="500" y2="235" stroke="#e8a838" stroke-width="1.5" opacity="0.4"/>

  <!-- Main headline -->
  <text x="60" y="310" font-family="Georgia, serif" font-size="36" fill="#ffffff" font-weight="bold">Compra, venta y traspaso de</text>
  <text x="60" y="360" font-family="Georgia, serif" font-size="36" fill="#e8a838" font-weight="bold">locales comerciales y negocios</text>
  <text x="60" y="410" font-family="Arial, sans-serif" font-size="20" fill="#8ab4c8">Especialistas en Málaga y toda la Costa del Sol</text>

  <!-- Contact info -->
  <text x="60" y="490" font-family="Arial, sans-serif" font-size="18" fill="#ffffff">📞 +34 645 412 519</text>
  <text x="60" y="525" font-family="Arial, sans-serif" font-size="16" fill="#8ab4c8">📧 info@centraldetraspasos.com</text>
  <text x="60" y="560" font-family="Arial, sans-serif" font-size="16" fill="#8ab4c8">🌐 centraldetraspasos.com</text>

  <!-- CTA -->
  <rect x="750" y="350" width="380" height="70" rx="35" fill="#e8a838"/>
  <text x="940" y="395" text-anchor="middle" font-family="Arial, sans-serif" font-size="24" font-weight="bold" fill="#0f2b3d">TASACIÓN GRATIS</text>

  <!-- Cities bar -->
  <text x="940" y="470" text-anchor="middle" font-family="Arial, sans-serif" font-size="17" fill="#ffffff">📍 Málaga · Torremolinos</text>
  <text x="940" y="500" text-anchor="middle" font-family="Arial, sans-serif" font-size="17" fill="#ffffff">📍 Fuengirola · Benalmádena</text>
  <text x="940" y="530" text-anchor="middle" font-family="Arial, sans-serif" font-size="17" fill="#ffffff">📍 Marbella · Costa del Sol</text>
</svg>
